<svg id="flat" height="512" viewBox="0 0 512 512" width="512" xmlns="http://www.w3.org/2000/svg"><path d="m416 488v-216h-264l-19.32-24h-44.68l-24 24v216z" fill="#f7b023"/><path d="m112 24h272v352h-272z" fill="#afeaef"/><path d="m112 24v24h145.927a86.073 86.073 0 0 1 86.073 86.073v75.854a86.073 86.073 0 0 1 -86.073 86.073h-145.927v80h272v-352z" fill="#77d5d8"/><path d="m360 88h-24v-24h-32v24h-24v32h24v24h32v-24h24z" fill="#4abdcc"/><path d="m352 80h-24v-24h-32v24h-24v32h24v24h32v-24h24z" fill="#f44a2a"/><path d="m200 168h16v16h-16z" fill="#3b9daf"/><path d="m232 168h112v16h-112z" fill="#3b9daf"/><path d="m416 488h-352l72-168h352z" fill="#f9e48c"/><path d="m397.476 320a175.076 175.076 0 0 1 -160.921 106.111h-146.031l-26.524 61.889h352l72-168z" fill="#f7ce23"/><g fill="#3b9daf"><path d="m200 224h96v16h-96z"/><path d="m312 224h24v16h-24z"/><path d="m200 256h64v16h-64z"/><path d="m280 256h72v16h-72z"/></g><path d="m144 160h32v32h-32z" fill="#066991"/><path d="m144 232h32v32h-32z" fill="#066991"/><path d="m384 272h16v48h-16z" fill="#f99321"/></svg>